<svg xmlns="http://www.w3.org/2000/svg" width="1745" height="573"><path fill="#ffffff" d="M1401.132 285.711c27.6 15.207 52.927 19.32 84.127 20.555 14.251.58 28.763 1.211 42.616 4.859l2.504.646c10.626 2.876 20.672 7.227 30.76 11.585 15.483 6.676 30.241 11.761 46.861 14.644 1.681.317 3.362.636 5.043.957 13.745 2.757 13.745 2.757 27.394.918 2.786-1.804 2.786-1.804 4.625-5.062L1647 332c2.75-.375 2.75-.375 5 0-.11 6.15-1.337 9.737-5.76 14.117-8.706 7.318-20.26 6.472-30.97 6.35a537.58 537.58 0 0 0-8.208-.008c-18.524-.017-35.486-3.207-53.187-8.459-16.854-4.977-32.613-8.547-50.313-8.25-1.365.012-2.73.023-4.096.033-7.623.074-15.215.35-22.82.852-37.767 2.372-66.937-5.184-100.86-20.888-27.037-12.512-52.45-21.576-81.82-11.016-25.979 9.983-48.471 27.403-70.341 44.207-10 7.667-20.215 14.962-30.625 22.062l-2.76 1.89c-40.761 27.824-83.788 52.118-130.24 69.11l-3.374 1.234c-46.728 16.848-107.415 31.164-155.021 9.536-13.373-6.356-23.454-15.453-33.668-25.957-14.217-14.332-29.793-21.032-49.812-21.25-21.124.171-41.395 5.77-61.777 10.82-14.542 3.58-29.34 6.908-44.348 7.617l-3.262.16c-16.274.405-31.805-2.839-47.55-6.66-17.542-4.234-34.564-6.71-52.626-6.812-1.478-.01-1.478-.01-2.987-.018-22.824.216-45.477 3.468-68.053 6.523-53.079 7.177-53.079 7.177-78.46 7.123-3.06-.003-6.12.02-9.18.045-17.123.056-33.936-1.543-50.507-6.048l-2.871-.769c-17.738-4.948-34.366-13.09-49.692-23.231-8.335-5.47-15.862-10.223-26.078-8.937-5.079 1.159-9.52 3.594-14.109 5.999-20.577 10.707-40.786 11.093-62.808 4.515C233.714 392.699 223.846 388.9 214 385l-2.292-.908C171.11 367.979 130.714 351.193 91 333l1-5c7.167.527 13.95 1.746 20.926 3.45l3.152.754c3.413.82 6.824 1.65 10.234 2.484l3.58.867c30.446 7.385 60.742 15.352 90.936 23.703l2.81.776c4.293 1.188 8.584 2.383 12.871 3.591 21.006 5.89 37.272 8.19 56.897-2.694 1.729-.972 3.45-1.957 5.163-2.958 13.473-7.729 27.287-9.55 42.431-5.973 10.075 2.892 18.922 8.132 28.012 13.219 15.737 8.802 31.252 15.387 48.988 19.031l2.222.458c2.585.491 5.176.894 7.778 1.292l3.31.518c15.111 2.02 30.268 1.689 45.479 1.586 4.012-.024 8.024-.034 12.036-.044 11.898-.034 23.796-.087 35.694-.15 9.254-.048 18.508-.09 27.762-.11 3.966-.01 7.933-.026 11.9-.056 35.906-.27 69.883 3.813 104.214 14.69 38.17 12.072 70.161 4.397 107.854-5.868 31.28-8.461 61.886-12.669 91.501 3.434 5.922 3.539 11.095 7.828 16.386 12.223 20.533 16.983 42.77 22.461 68.989 20.152 43.604-4.5 86-20.336 124.747-40.284 2.285-1.171 4.58-2.322 6.874-3.474 39.271-19.914 74.89-46.416 109.754-73.117l6.41-4.902c1.37-1.047 2.738-2.096 4.105-3.145 65.606-50.309 122.343-62.526 196.117-21.742Z"/><path fill="#ffffff" d="M207.972 190.109c2.028.891 2.028.891 3.344 3.16.375.985.75 1.97 1.135 2.986l1.281 3.312L215 203l1.18 3.116a970.983 970.983 0 0 1 3.601 9.798l1.355 3.714c1.208 3.312 2.412 6.625 3.616 9.938 1.006 2.768 2.014 5.536 3.023 8.303a21475.76 21475.76 0 0 1 16.373 45.111l.741 2.048c2.577 7.121 5.152 14.243 7.722 21.367a7355.28 7355.28 0 0 1 3.661 10.144l1.052 2.91.913 2.533c.734 2.045.734 2.045 1.763 4.018.125 3.062.125 3.062 0 6-1.76 1.76-4.087 1.132-6.433 1.147l-2.36-.002-2.473.01c-2.712.01-5.424.012-8.136.013l-5.632.01c-3.94.006-7.88.008-11.82.007-5.06 0-10.118.014-15.177.031-3.878.011-7.757.013-11.635.013-1.865 0-3.731.005-5.597.013-2.605.01-5.21.007-7.815 0-1.165.01-1.165.01-2.354.018-5.34-.032-5.34-.032-7.568-2.26-.23-2.094-.23-2.094-.188-4.5l.02-2.406C173 322 173 322 174 320h68l-10.813-30.125c-1.1-3.068-2.2-6.136-3.335-9.297a7932.445 7932.445 0 0 0-14.318-39.623c-.486-1.332-.971-2.665-1.455-3.997-.665-1.83-1.334-3.66-2.004-5.489l-1.145-3.14c-.722-2.252-.722-2.252-1.93-3.329a33409.07 33409.07 0 0 0-9.375 25.375l-.71 1.922a6217.871 6217.871 0 0 0-23.49 64.724l-1.093 3.054c-.673 1.88-1.343 3.762-2.01 5.644l-.89 2.482-.77 2.164C168 332 168 332 167 333c-1.81.125-3.624.176-5.438.187l-2.996.043C156 333 156 333 154 331c1.14-7.152 3.561-13.783 6.05-20.563l1.233-3.396c1.107-3.048 2.22-6.094 3.334-9.14.935-2.555 1.865-5.113 2.796-7.67 3.183-8.748 6.382-17.49 9.587-26.231l.742-2.024a14114.588 14114.588 0 0 1 18.14-49.25c1.34-3.612 2.665-7.228 3.974-10.85l.84-2.3c.715-1.962 1.424-3.925 2.132-5.888 1.327-3.043 1.82-3.763 5.144-3.579ZM388.375 213.688l2.96-.114c2.665.426 2.665.426 4.186 2.123 1.584 2.466 2.696 4.864 3.807 7.576l1.392 3.363.75 1.833c1.393 3.403 2.806 6.796 4.217 10.191l.969 2.333c4.86 11.685 9.84 23.32 14.803 34.963l2.376 5.58 4.493 10.546 1.384 3.25 1.27 2.976 1.112 2.61A84.676 84.676 0 0 0 434 305l1.199-2.854A17433.818 17433.818 0 0 1 467 227l-2.347.007c-7.284.02-14.568.035-21.853.045-3.745.005-7.49.012-11.235.023-3.612.011-7.223.017-10.835.02-1.38.002-2.761.005-4.142.01-1.928.008-3.855.008-5.783.009l-3.331.006C405 227 405 227 404 226a97.709 97.709 0 0 1-.125-5.5l-.008-3.031C404 215 404 215 405 214c2.495-.095 4.962-.126 7.457-.114h2.365c2.592 0 5.184.009 7.776.016l5.376.005c4.727.003 9.453.013 14.18.024 4.819.01 9.638.015 14.457.02 9.463.01 18.926.028 28.389.049 1.063 4.49.704 6.593-1.148 10.863l-1.522 3.564-1.705 3.886c-.589 1.367-1.176 2.735-1.762 4.104a2423.66 2423.66 0 0 1-3.827 8.872 2065.444 2065.444 0 0 0-6.196 14.496c-.35.825-.7 1.65-1.062 2.499a2177.699 2177.699 0 0 0-5.371 12.754c-3.302 7.882-6.681 15.649-10.567 23.263-10.459 20.942-11.682 40.052-10.931 63.34.105 3.408.179 6.096-.909 9.359-3.127 1.564-6.58 1.4-10 1l-3-2c-.091-2.936-.006-5.685.191-8.605 1.216-28.807-4.424-49.738-16.945-75.518-4.876-10.042-9.178-20.302-13.455-30.61a2045.357 2045.357 0 0 0-4.749-11.298c-1.06-2.51-2.116-5.024-3.17-7.537a541.561 541.561 0 0 0-3.513-8.18l-1.394-3.209-1.172-2.644c-.866-2.621-1.02-4.656-.793-7.399 1.735-1.735 4.015-1.254 6.375-1.313ZM292.848 213.762l2.436-.025c1.716-.014 3.432-.024 5.148-.032 1.727-.012 3.454-.032 5.18-.062 15.891-.275 32.993.539 45.22 12.087 6.409 7.064 8.518 14.204 8.379 23.586-.657 8.356-3.794 14.408-9.211 20.684l2.047 1.688C358.65 277.337 362.242 281.726 365 290c.726 10.49.825 19.774-5.883 28.43-8.983 9.82-21.486 13.87-34.57 14.731-5.498.2-10.992.18-16.493.12a980.776 980.776 0 0 0-8.72-.047l-5.541-.03-2.635-.014c-6.04-.073-6.04-.073-7.158-1.19a71.136 71.136 0 0 1-.127-4.555l-.009-2.983.007-3.3-.006-3.454c-.004-3.788-.001-7.576.002-11.364a13786.135 13786.135 0 0 1 .002-24.352c.006-6.365.004-12.73-.001-19.095-.005-6.112-.005-12.224-.002-18.336 0-2.606 0-5.212-.002-7.818-.003-3.635.001-7.27.007-10.905l-.007-3.3.009-2.983.001-2.608c.301-4.66 5.364-3.15 8.974-3.185ZM297 227v93c25.85 1.105 25.85 1.105 49.438-8.313 3.786-3.97 5.248-7.608 6.062-13-.908-6.695-3.687-12.618-8.938-17-5.582-3.775-12.19-5.665-18.562-7.687v-5l2.887-1.54c1.267-.694 2.534-1.39 3.8-2.085l1.897-1.004c5.364-2.977 9.411-6.356 11.416-12.371.395-4.48.559-8.603-1.125-12.813-7.291-8.506-15.98-10.63-26.875-12.187h-20ZM673 191c4.727-1.304 8.3-1.511 13 0 4.606 4.387 7.381 10.569 10.383 16.095 2.8 5.028 5.914 9.857 8.992 14.718 1.26 2.016 2.52 4.033 3.777 6.05C715.044 237.28 721.02 246.641 727 256c2.637-3.206 4.999-6.434 7.18-9.965l1.82-2.931 1.875-3.042c7.27-11.754 14.691-23.41 22.125-35.062l-2.347-.031c-7.284-.098-14.568-.2-21.853-.308-3.745-.056-7.49-.109-11.235-.158-3.612-.048-7.223-.1-10.835-.156-1.38-.02-2.761-.04-4.142-.056a1596.95 1596.95 0 0 1-5.783-.086c-1.1-.015-2.198-.03-3.331-.047C698 204 698 204 697 203a97.709 97.709 0 0 1-.125-5.5l-.008-3.031C697 192 697 192 698 191c2.581-.1 5.135-.136 7.717-.13l2.449-.005c2.684-.004 5.368-.001 8.053.002a7421.714 7421.714 0 0 1 17.263.002c5.007.006 10.015.003 15.022-.003 3.836-.004 7.673-.002 11.509 0 1.847 0 3.694 0 5.54-.002 2.577-.003 5.154.001 7.73.007l2.336-.007c5.267.022 5.267.022 6.381 1.136 1.002 5.4-2.213 9.038-5.063 13.313-1.11 1.71-2.22 3.42-3.328 5.132l-1.787 2.74c-3.104 4.796-6.115 9.651-9.135 14.502l-3.792 6.075-1.928 3.087c-3.362 5.385-6.727 10.768-10.092 16.151l-3.633 5.813C740 264 740 264 738.71 265.615c-4.717 6.343-4.424 12.578-4.38 20.256l-.06 6.04c-.02 2.798-.019 5.596-.018 8.394-.003 4.927-.045 9.853-.083 14.78-.018 2.62-.028 5.24-.03 7.859l-.012 3.562-.001 3.15C734 332 734 332 733 333c-1.831.099-3.666.13-5.5.125l-3.031.008C722 333 722 333 721 332a93.533 93.533 0 0 1-.015-5.212l.057-3.384.063-3.705c.02-3.274.034-6.548.043-9.823.014-3.406.047-6.81.13-10.215.374-17.808-.902-30.325-11.828-44.733-1.892-2.515-3.523-5.162-5.157-7.85-1.033-1.61-2.068-3.22-3.106-4.828a7760.555 7760.555 0 0 1-5.327-8.33 2402.47 2402.47 0 0 1-9.798-15.545l-1.825-2.905c-1.76-2.815-3.5-5.641-5.237-8.47-.67-1.068-1.34-2.137-2.032-3.237l-1.972-3.224-1.81-2.923C672 195 672 195 672.312 192.654L673 191ZM839 212c2.625-.188 2.625-.188 5 0 3.269 6.378 6.29 12.8 9.047 19.414l1.117 2.656c1.198 2.85 2.392 5.703 3.586 8.555 1.267 3.017 2.536 6.033 3.804 9.05l2.594 6.17a7111.663 7111.663 0 0 0 13.04 30.78l2.028 4.764.985 2.313c.638 1.5 1.274 3.001 1.91 4.503 1.69 3.996 3.406 7.979 5.153 11.95.372.856.744 1.71 1.126 2.592a489.305 489.305 0 0 0 2.163 4.905c1.841 4.267 2.979 7.602 2.447 12.348-1.668 1.668-3.697 1.132-5.925 1.147l-2.133-.002-2.237.01c-2.453.01-4.905.012-7.357.013l-5.093.01c-3.564.006-7.128.008-10.691.007-4.575 0-9.15.014-13.724.031a3174.5 3174.5 0 0 1-10.523.013c-1.687 0-3.374.005-5.061.013-2.356.01-4.712.007-7.068 0-.702.007-1.404.012-2.127.018-4.833-.032-4.833-.032-7.061-2.26-.23-2.094-.23-2.094-.188-4.5l.02-2.406C814 322 814 322 815 320h60l-12-27a1652.73 1652.73 0 0 1-6.75-16 8623.574 8623.574 0 0 1-4.789-11.493 3745.58 3745.58 0 0 0-6.274-14.945l-1.894-4.496L842 243c-3.307 3.803-4.948 8.227-6.852 12.828l-1.126 2.684c-.803 1.913-1.602 3.828-2.4 5.743a3493.233 3493.233 0 0 1-3.78 9.035c-1.743 4.155-3.485 8.311-5.225 12.468a6142.028 6142.028 0 0 1-11.12 26.345c-1.111 2.622-2.22 5.244-3.328 7.867l-2.02 4.764-.929 2.203c-2.106 4.949-2.106 4.949-3.22 6.063-1.853.072-3.708.084-5.563.063l-3.066-.028L791 333c-1.178-2.021-1.178-2.021-2-5a54.794 54.794 0 0 1 2.855-7.656l.996-2.298c1.096-2.523 2.217-5.034 3.337-7.546.776-1.777 1.551-3.556 2.324-5.335 1.64-3.773 3.289-7.543 4.94-11.311 3.803-8.706 7.473-17.469 11.151-26.228 1.986-4.724 3.98-9.445 5.975-14.165l1.149-2.719c3.18-7.524 6.36-15.047 9.565-22.56.746-1.75 1.49-3.502 2.233-5.253l1.323-3.093 1.125-2.64C837 215 837 215 839 212ZM1050.375 211.688c2.625.312 2.625.312 4.13 1.971 1.677 2.626 2.849 5.224 4.034 8.107l1.482 3.572.787 1.92c1.435 3.499 2.89 6.989 4.34 10.48l.938 2.261c3.32 8 6.707 15.971 10.101 23.94 1.066 2.506 2.13 5.012 3.192 7.518a2711.163 2711.163 0 0 0 10.289 23.981c1.606 3.691 3.203 7.386 4.8 11.082.766 1.767 1.538 3.532 2.314 5.296 1.077 2.445 2.137 4.898 3.195 7.352l.978 2.188c1.667 3.918 2.527 6.557 1.045 10.644-1.67 1.67-3.706 1.126-5.936 1.136l-2.138-.007-2.242.006c-2.457.004-4.914.001-7.371-.002l-5.1.003c-3.569.001-7.136-.001-10.704-.006-4.584-.005-9.168-.002-13.751.004-3.512.004-7.024.002-10.536 0-1.69 0-3.381 0-5.072.002-2.359.003-4.717-.001-7.076-.007l-2.138.007c-4.822-.022-4.822-.022-5.936-1.136a97.709 97.709 0 0 1-.125-5.5l-.008-3.031C1024 321 1024 321 1025 320c1.841-.094 3.686-.117 5.53-.114h3.579l3.895.016 3.964.005c3.484.003 6.967.013 10.45.024 3.553.01 7.106.015 10.658.02 6.975.01 13.95.028 20.924.049a17825.923 17825.923 0 0 0-33-78c-8.37 18.684-16.336 37.535-24.28 56.403l-2.322 5.512c-1.911 4.536-3.81 9.076-5.69 13.625l-1.105 2.663c-.69 1.663-1.376 3.326-2.057 4.992-2.321 5.58-2.321 5.58-4.546 7.805-2.566.23-2.566.23-5.563.188l-3.003-.02C1000 333 1000 333 999 332c.373-6.372 2.126-11.358 4.727-17.14l1.15-2.63c.816-1.861 1.636-3.721 2.46-5.58 2.196-4.945 4.356-9.906 6.522-14.865l1.328-3.03c4.002-9.146 7.87-18.344 11.688-27.567l1.81-4.362c1.18-2.846 2.36-5.692 3.538-8.538 2.748-6.635 5.51-13.264 8.281-19.89.852-2.04 1.701-4.08 2.55-6.122l1.532-3.663 1.345-3.225c1.482-3.31 1.482-3.31 4.444-3.7ZM546.375 211.625 549 212c2.863 4.007 4.65 8.58 6.563 13.094l1.041 2.433c1.136 2.656 2.266 5.314 3.396 7.973l2.395 5.61a11420.897 11420.897 0 0 1 23.463 55.442c1.915 4.552 3.843 9.097 5.8 13.63a1952.43 1952.43 0 0 1 2.264 5.278c.85 1.986 1.709 3.969 2.578 5.947l1.078 2.534.92 2.116c.606 2.343.315 3.685-.498 5.943-1.67 1.67-3.706 1.126-5.936 1.136l-2.138-.007-2.242.006c-2.457.004-4.914.001-7.371-.002l-5.1.003c-3.569.001-7.136-.001-10.704-.006-4.584-.005-9.168-.002-13.751.004-3.512.004-7.024.002-10.536 0-1.69 0-3.381 0-5.072.002-2.359.003-4.717-.001-7.076-.007l-2.138.007c-4.822-.022-4.822-.022-5.936-1.136a97.709 97.709 0 0 1-.125-5.5l-.008-3.031C520 321 520 321 521 320c1.841-.094 3.686-.117 5.53-.114h3.579l3.895.016 3.964.005c3.484.003 6.967.013 10.45.024 3.553.01 7.106.015 10.658.02 6.975.01 13.95.028 20.924.049l-.806-1.889a58034.9 58034.9 0 0 1-7.672-17.99l-3.94-9.24A5075 5075 0 0 1 547 242c-4.53 9.596-8.736 19.307-12.863 29.081-1.474 3.49-2.954 6.978-4.433 10.466l-3.43 8.092a9355.08 9355.08 0 0 1-9.727 22.867c-.653 1.53-1.305 3.062-1.956 4.593-.901 2.12-1.806 4.24-2.712 6.358l-1.545 3.624C509 330 509 330 507 333c-2.566.328-2.566.328-5.563.25-.99-.015-1.982-.03-3.003-.047C496 333 496 333 495 332c-.327-4.475.342-7.501 2.176-11.566l1.48-3.338.812-1.793c1.503-3.32 2.967-6.66 4.438-9.994l.979-2.211c4.261-9.649 8.336-19.377 12.428-29.098l2.424-5.75c3.622-8.589 7.236-17.181 10.84-25.778l4.487-10.693c1.044-2.488 2.084-4.977 3.125-7.466l1.881-4.485c.285-.683.57-1.366.862-2.07 2.377-5.649 2.377-5.649 5.443-6.133ZM921.602 213.805l3.023.07 3.04.055L930 214c1.156 2.312 1.123 3.617 1.12 6.189l.004 2.66-.01 2.925v3.075c0 3.365-.009 6.73-.016 10.096l-.005 6.987c-.003 6.139-.013 12.277-.024 18.416-.01 6.26-.015 12.52-.02 18.78-.01 12.291-.028 24.582-.049 36.872l2.157-.007c6.696-.02 13.391-.035 20.087-.045 3.442-.005 6.885-.012 10.328-.023 3.954-.013 7.908-.018 11.862-.023l3.762-.015h3.458l3.062-.007C988 320 988 320 989 321c.099 1.831.13 3.666.125 5.5l.008 3.031C989 332 989 332 988 333a139.92 139.92 0 0 1-6.416.145l-2.03.01c-2.225.01-4.45.012-6.675.013l-4.622.01c-3.234.006-6.468.008-9.703.007-4.15 0-8.301.014-12.452.031-3.184.011-6.367.013-9.55.013-1.531 0-3.062.005-4.593.013-2.138.01-4.276.007-6.414 0l-3.692.005C919 333 919 333 917 331c-.252-2.037-.252-2.037-.254-4.593l-.017-2.932.012-3.227-.01-3.39c-.01-3.713-.003-7.426.003-11.14l-.005-7.711c-.003-5.394 0-10.788.01-16.181.011-6.24.008-12.481-.003-18.722-.01-5.997-.01-11.994-.004-17.991.002-2.555 0-5.11-.005-7.665-.005-3.566.003-7.13.014-10.696l-.012-3.227.017-2.932.002-2.556c.41-3.315 1.63-3.99 4.854-4.232ZM1175 470h15v24h24v-24h15v63h-15v-25h-24v25h-15v-63ZM1295.938 471.625c2.109 1.133 2.109 1.133 4.062 2.375l1.89 1.18c6.195 4.551 9.917 12.042 11.755 19.402 1.51 10.278-.446 19.218-6.457 27.793-5.272 6.48-11.302 10.11-19.704 10.996-9.739.173-16.291-.865-23.73-7.32-6.903-7.055-9.882-14.737-10.254-24.551.377-9.952 3.448-17.42 10.34-24.621 8.559-7.445 21.545-9.646 32.098-5.254ZM1272 490c-3.178 6.11-3.456 11.792-1.93 18.445 1.83 5.03 4.854 8.278 9.368 11.055 5.102.996 8.477.21 12.812-2.625 4.63-4.84 5.907-8.775 6.188-15.313-.203-6.685-2.286-11.03-6.563-16.062-7.476-3.9-14.943-2.326-19.875 4.5ZM1480 470h44v14h-28v11h24v12h-24v12h29v14h-45v-63ZM1378.621 473.516C1381 475 1381 475 1382 476.844c0 2.977-1.031 4.8-2.438 7.406l-1.433 2.703L1377 489c-2.657-.6-4.682-1.32-7.188-2.5-5.044-2.223-10.534-3.26-15.812-1.5l-1 6 1.766.516c1.75.517 3.497 1.044 5.242 1.578a255.97 255.97 0 0 0 6.047 1.75c6.91 2.04 12.217 4.574 16.945 10.156 2.086 6.257 2.135 13.605-.688 19.563-6.385 6.73-11.934 8.786-21.058 9.402-8.85.095-17.365-1.942-25.254-5.965l-2-2c.35-3.777 1.671-6.564 3.563-9.813l1.378-2.394c.35-.592.7-1.183 1.059-1.793l1.906 1.023c8.339 4.346 14.665 6.66 24.094 4.977l1-4c-4.637-2.497-9.096-4.42-14.125-6-6.717-2.174-12.158-4.668-15.875-11-1.636-6.487-1.358-12.159 2-18 10.065-12.653 26.046-10.881 39.621-5.484ZM1404 470h53v14h-19v49h-15v-49h-19v-14ZM1550 470h15v49h30v14h-45v-63Z"/></svg>